<svg width="927" height="930" viewBox="0 0 927 930" fill="none" xmlns="http://www.w3.org/2000/svg">
<path fill-rule="evenodd" clip-rule="evenodd" d="M572.063 123.047L267.946 0.176147L145.075 304.292L356.473 389.703C407.68 410.392 465.963 385.652 486.652 334.445L572.063 123.047ZM153.133 723.728C69.1541 689.798 28.5809 594.214 62.5108 510.234C96.4407 426.255 192.025 385.682 276.004 419.612C359.984 453.542 400.557 549.126 366.627 633.105C332.697 717.085 237.113 757.658 153.133 723.728ZM926.063 267.047L621.946 144.176L536.536 355.574C515.847 406.781 540.587 465.064 591.794 485.753L803.192 571.163L926.063 267.047ZM354.075 806.292L658.192 929.163L781.063 625.047L569.665 539.637C518.458 518.948 460.175 543.688 439.486 594.895L354.075 806.292Z" fill="url(#paint0_linear)"/>
<defs>
<linearGradient id="paint0_linear" x1="-195.232" y1="198.699" x2="201.804" y2="1125.03" gradientUnits="userSpaceOnUse">
<stop stop-color="#FF8F71"/>
<stop offset="1" stop-color="#FF3E55"/>
</linearGradient>
</defs>
</svg>
