<svg width="926" height="883" viewBox="0 0 926 883" fill="none" xmlns="http://www.w3.org/2000/svg">
<g id="Group 12">
<rect id="Rectangle Copy" opacity="0.08" width="600" height="602" rx="300" transform="matrix(1 0 0 -1 185.157 746.959)" fill="#2D2E40"/>
<rect id="Rectangle Copy 4" opacity="0.5" x="0.5" y="-0.5" width="679" height="681" rx="339.5" transform="matrix(1 0 0 -1 145.157 781.959)" stroke="#2D2E40"/>
<rect id="Rectangle Copy 9" opacity="0.25" x="0.5" y="-0.5" width="879" height="881" rx="439.5" transform="matrix(1 0 0 -1 45.157 881.959)" stroke="#2D2E40"/>
<g id="Group 11">
<g id="Group 14">
<g id="Group 13">
<g id="Mask" filter="url(#filter0_d)">
<rect x="40.157" y="242.959" width="642" height="427" rx="15" fill="url(#paint0_linear)"/>
</g>
<mask id="mask0" mask-type="alpha" maskUnits="userSpaceOnUse" x="40" y="242" width="643" height="428">
<rect id="Mask_2" x="40.157" y="242.959" width="642" height="427" rx="15" fill="white"/>
</mask>
<g mask="url(#mask0)">
<path id="Mask Copy" d="M40.157 370.959C40.157 369.302 41.5001 367.959 43.157 367.959H679.157C680.814 367.959 682.157 369.302 682.157 370.959V666.959C682.157 668.616 680.814 669.959 679.157 669.959H43.157C41.5001 669.959 40.157 668.616 40.157 666.959V370.959Z" fill="#2D2E40"/>
<rect id="Mask Copy 2" x="130.68" y="290.668" width="135.785" height="137.165" rx="3" fill="white"/>
<ellipse id="Oval" cx="198.572" cy="359.847" rx="39.3061" ry="39.3603" fill="#2D2E40"/>
<rect id="Mask Copy 3" x="289.096" y="290.668" width="302.538" height="325.617" rx="3" fill="white"/>
</g>
</g>
<path id="Path 2" d="M249.157 526.959C249.157 526.959 319.844 416.908 353.714 408.021C387.584 399.134 377.479 491.16 426.249 480.494C475.019 469.828 480.965 376.519 517.852 372.123C554.739 367.726 574.254 453.07 590.367 460.933C606.48 468.796 630.157 426.927 630.157 426.927" stroke="url(#paint1_linear)" stroke-width="8" stroke-linecap="round"/>
</g>
</g>
</g>
<defs>
<filter id="filter0_d" x="0.156982" y="222.959" width="722" height="507" filterUnits="userSpaceOnUse" color-interpolation-filters="sRGB">
<feFlood flood-opacity="0" result="BackgroundImageFix"/>
<feColorMatrix in="SourceAlpha" type="matrix" values="0 0 0 0 0 0 0 0 0 0 0 0 0 0 0 0 0 0 127 0"/>
<feOffset dy="20"/>
<feGaussianBlur stdDeviation="20"/>
<feColorMatrix type="matrix" values="0 0 0 0 0.421822 0 0 0 0 0.554338 0 0 0 0 0.89371 0 0 0 0.243444 0"/>
<feBlend mode="normal" in2="BackgroundImageFix" result="effect1_dropShadow"/>
<feBlend mode="normal" in="SourceGraphic" in2="effect1_dropShadow" result="shape"/>
</filter>
<linearGradient id="paint0_linear" x1="-280.843" y1="456.459" x2="112.955" y2="1048.54" gradientUnits="userSpaceOnUse">
<stop stop-color="#FF8F71"/>
<stop offset="1" stop-color="#FF3E55"/>
</linearGradient>
<linearGradient id="paint1_linear" x1="58.657" y1="449.459" x2="166.864" y2="715.438" gradientUnits="userSpaceOnUse">
<stop stop-color="#FF8F71"/>
<stop offset="1" stop-color="#FF3E55"/>
</linearGradient>
</defs>
</svg>
