<svg width="375" height="331" viewBox="0 0 375 331" fill="none" xmlns="http://www.w3.org/2000/svg">
<g id="Group 10">
<g id="Group 21">
<rect id="Rectangle Copy" opacity="0.08" width="223" height="223" rx="111.5" transform="matrix(1 0 0 -1 76 276)" fill="#2D2E40"/>
<rect id="Rectangle Copy 4" opacity="0.5" x="0.5" y="-0.5" width="251" height="251" rx="125.5" transform="matrix(1 0 0 -1 61 288)" stroke="#2D2E40"/>
<rect id="Rectangle Copy 9" opacity="0.25" x="0.5" y="-0.5" width="325" height="325" rx="162.5" transform="matrix(1 0 0 -1 24 325)" stroke="#2D2E40"/>
</g>
<g id="Group 14">
<g id="Group 13">
<g id="Mask" filter="url(#filter0_d)">
<rect x="24" y="54" width="326" height="217" rx="5" fill="url(#paint0_linear)"/>
</g>
<mask id="mask0" mask-type="alpha" maskUnits="userSpaceOnUse" x="24" y="54" width="326" height="217">
<rect id="Mask_2" x="24" y="54" width="326" height="217" rx="5" fill="white"/>
</mask>
<g mask="url(#mask0)">
<path id="Mask Copy" d="M24 120.525C24 118.868 25.3431 117.525 27 117.525H347C348.657 117.525 350 118.868 350 120.525V268C350 269.657 348.657 271 347 271H27C25.3432 271 24 269.657 24 268V120.525Z" fill="#2D2E40"/>
<rect id="Mask Copy 2" x="69.9666" y="78.2458" width="68.9499" height="69.7067" rx="3" fill="white"/>
<ellipse id="Oval" cx="104.442" cy="113.402" rx="19.9592" ry="20.0028" fill="#2D2E40"/>
<rect id="Mask Copy 3" x="150.408" y="78.2458" width="153.625" height="165.478" rx="3" fill="white"/>
</g>
</g>
<path id="Path 2" d="M130 198C130 198 165.807 141.909 182.964 137.38C200.122 132.851 195.003 179.754 219.708 174.318C244.413 168.882 247.425 121.324 266.111 119.084C284.796 116.843 294.682 160.341 302.844 164.348C311.006 168.356 323 147.016 323 147.016" stroke="url(#paint1_linear)" stroke-width="8" stroke-linecap="round"/>
</g>
</g>
<defs>
<filter id="filter0_d" x="-16" y="34" width="406" height="297" filterUnits="userSpaceOnUse" color-interpolation-filters="sRGB">
<feFlood flood-opacity="0" result="BackgroundImageFix"/>
<feColorMatrix in="SourceAlpha" type="matrix" values="0 0 0 0 0 0 0 0 0 0 0 0 0 0 0 0 0 0 127 0"/>
<feOffset dy="20"/>
<feGaussianBlur stdDeviation="20"/>
<feColorMatrix type="matrix" values="0 0 0 0 0.421822 0 0 0 0 0.554338 0 0 0 0 0.89371 0 0 0 0.243444 0"/>
<feBlend mode="normal" in2="BackgroundImageFix" result="effect1_dropShadow"/>
<feBlend mode="normal" in="SourceGraphic" in2="effect1_dropShadow" result="shape"/>
</filter>
<linearGradient id="paint0_linear" x1="-139" y1="162.5" x2="61.1893" y2="463.245" gradientUnits="userSpaceOnUse">
<stop stop-color="#FF8F71"/>
<stop offset="1" stop-color="#FF3E55"/>
</linearGradient>
<linearGradient id="paint1_linear" x1="33.5" y1="158.5" x2="88.8926" y2="293.826" gradientUnits="userSpaceOnUse">
<stop stop-color="#FF8F71"/>
<stop offset="1" stop-color="#FF3E55"/>
</linearGradient>
</defs>
</svg>
