<svg width="368" height="382" viewBox="0 0 368 382" fill="none" xmlns="http://www.w3.org/2000/svg">
<rect x="45.4836" y="23.5104" width="141.331" height="293.053" rx="22" fill="url(#paint0_linear)"/>
<path fill-rule="evenodd" clip-rule="evenodd" d="M100.258 177.699V159.298H103.761V177.699H100.258ZM84.9729 177.699V160.186H91.4273C92.6281 160.186 93.6663 160.371 94.5419 160.741C95.4174 161.111 96.0929 161.638 96.5682 162.32C97.0435 163.002 97.2812 163.804 97.2812 164.725C97.2812 165.563 97.0977 166.299 96.7308 166.932C96.3639 167.565 95.8469 168.063 95.1798 168.425C96.0804 168.77 96.7809 169.317 97.2812 170.065C97.7815 170.813 98.0317 171.697 98.0317 172.716C98.0317 173.736 97.7649 174.615 97.2312 175.355C96.6975 176.095 95.947 176.671 94.9796 177.082C94.0123 177.493 92.8699 177.699 91.5523 177.699H84.9729ZM88.5753 163.22V167.241H91.027C91.8442 167.241 92.4738 167.072 92.9158 166.735C93.3577 166.398 93.5787 165.9 93.5787 165.243C93.5787 164.585 93.3577 164.083 92.9158 163.738C92.4738 163.393 91.8442 163.22 91.027 163.22H88.5753ZM91.3772 174.665H88.5753V170.077H91.3772C92.3112 170.077 93.0325 170.274 93.5412 170.669C94.0499 171.064 94.3042 171.631 94.3042 172.371C94.3042 173.111 94.0499 173.678 93.5412 174.073C93.0325 174.467 92.3112 174.665 91.3772 174.665ZM110.19 177.551C111.024 177.896 111.933 178.069 112.917 178.069C113.917 178.069 114.839 177.896 115.681 177.551C116.523 177.205 117.257 176.72 117.883 176.095C118.508 175.47 118.996 174.739 119.346 173.9C119.696 173.062 119.871 172.149 119.871 171.162C119.871 170.176 119.7 169.267 119.359 168.437C119.017 167.606 118.537 166.883 117.92 166.266C117.303 165.65 116.578 165.169 115.744 164.823C114.91 164.478 114.001 164.305 113.017 164.305C112.016 164.305 111.095 164.478 110.252 164.823C109.41 165.169 108.676 165.654 108.051 166.279C107.426 166.904 106.938 167.631 106.587 168.462C106.237 169.292 106.062 170.2 106.062 171.187C106.062 172.174 106.233 173.086 106.575 173.925C106.917 174.763 107.396 175.491 108.013 176.108C108.631 176.724 109.356 177.205 110.19 177.551ZM112.967 174.961C113.601 174.961 114.168 174.796 114.668 174.467C115.168 174.139 115.564 173.69 115.856 173.123C116.148 172.556 116.294 171.911 116.294 171.187C116.294 170.463 116.148 169.818 115.856 169.251C115.564 168.683 115.168 168.235 114.668 167.907C114.168 167.578 113.601 167.413 112.967 167.413C112.333 167.413 111.766 167.578 111.266 167.907C110.765 168.235 110.369 168.683 110.077 169.251C109.785 169.818 109.64 170.463 109.64 171.187C109.64 171.911 109.785 172.556 110.077 173.123C110.369 173.69 110.765 174.139 111.266 174.467C111.766 174.796 112.333 174.961 112.967 174.961ZM125.263 176.835C125.988 177.164 126.768 177.329 127.602 177.329C128.436 177.329 129.199 177.16 129.891 176.823C130.583 176.486 131.154 176.021 131.604 175.429V176.49C131.604 177.181 131.471 177.785 131.204 178.303C130.937 178.821 130.566 179.224 130.091 179.511C129.615 179.799 129.053 179.943 128.402 179.943C127.802 179.943 127.264 179.807 126.789 179.536C126.313 179.265 125.926 178.891 125.625 178.414L122.273 179.228C122.607 179.951 123.065 180.584 123.649 181.127C124.233 181.67 124.916 182.093 125.7 182.397C126.484 182.701 127.368 182.854 128.352 182.854C129.353 182.854 130.266 182.693 131.091 182.373C131.917 182.052 132.63 181.596 133.23 181.004C133.831 180.412 134.294 179.705 134.619 178.882C134.944 178.06 135.107 177.148 135.107 176.145V164.675H131.88L131.804 166.279C131.354 165.637 130.787 165.148 130.103 164.811C129.42 164.474 128.652 164.305 127.802 164.305C126.935 164.305 126.13 164.474 125.388 164.811C124.645 165.148 123.995 165.613 123.436 166.205C122.878 166.797 122.444 167.491 122.135 168.289C121.827 169.086 121.673 169.954 121.673 170.891C121.673 171.795 121.823 172.638 122.123 173.419C122.423 174.2 122.84 174.883 123.374 175.466C123.907 176.05 124.537 176.506 125.263 176.835ZM128.452 174.27C129.069 174.27 129.615 174.118 130.091 173.814C130.566 173.51 130.946 173.099 131.229 172.581C131.513 172.063 131.654 171.475 131.654 170.817C131.654 170.159 131.513 169.571 131.229 169.053C130.946 168.536 130.566 168.124 130.091 167.82C129.615 167.516 129.069 167.364 128.452 167.364C127.835 167.364 127.289 167.516 126.814 167.82C126.338 168.124 125.959 168.536 125.675 169.053C125.392 169.571 125.25 170.159 125.25 170.817C125.25 171.475 125.392 172.063 125.675 172.581C125.959 173.099 126.338 173.51 126.814 173.814C127.289 174.118 127.835 174.27 128.452 174.27ZM141.136 164.675H137.909V177.699H141.411V171.31C141.411 170.241 141.669 169.415 142.186 168.831C142.703 168.248 143.446 167.956 144.413 167.956C144.613 167.956 144.809 167.968 145.001 167.993C145.193 168.018 145.38 168.063 145.564 168.129L145.939 164.725C145.756 164.659 145.547 164.606 145.314 164.564C145.08 164.523 144.847 164.503 144.613 164.503C143.846 164.503 143.179 164.688 142.612 165.058C142.045 165.428 141.594 165.958 141.261 166.649L141.136 164.675Z" fill="white"/>
<g filter="url(#filter0_d)">
<path fill-rule="evenodd" clip-rule="evenodd" d="M181.578 298.477C181.578 305.812 176.164 312.131 168.832 312.131H64.2761C56.9441 312.131 50.5688 305.812 50.5688 298.477V40.8713C50.5688 33.5367 56.9441 28.1744 64.2761 28.1744H76.3639C78.9192 28.1744 79.8632 27.882 80.0179 31.1225C80.0986 32.8055 80.716 34.1139 81.7048 35.1965C82.6929 36.259 84.0531 37.1322 85.6167 37.622C86.6772 37.9539 87.8581 38.2552 88.9845 38.2552H91.267H141.952H144.235C145.362 38.2552 146.543 37.8851 147.603 37.5532C149.167 37.0635 150.526 36.2463 151.515 35.2032C152.505 34.1401 153.122 32.887 153.202 31.204C153.356 27.9643 154.301 28.1744 156.857 28.1744H168.832C176.164 28.1744 181.578 33.5367 181.578 40.8713V298.477ZM108.422 29.4342H124.798C125.494 29.4342 126.058 29.8656 126.058 30.4839C126.058 31.103 125.494 31.5344 124.798 31.5344H108.422C107.726 31.5344 107.163 31.103 107.163 30.4839C107.163 29.8656 107.726 29.4342 108.422 29.4342ZM133.406 29.7961C133.406 30.8107 132.583 31.6339 131.569 31.6339C130.554 31.6339 129.732 30.8107 129.732 29.7961C129.732 28.7815 130.554 27.9583 131.569 27.9583C132.583 27.9583 133.406 28.7815 133.406 29.7961ZM189.556 88.6618V41.699C189.556 29.8215 179.931 20.193 168.057 20.193H63.599C51.3521 20.193 41.3309 30.2178 41.3309 42.4699V59.6783C40.6351 59.6783 40.0708 60.242 40.0708 60.9381V69.7591C40.0708 70.4552 40.6351 71.0197 41.3309 71.0197V81.5208C40.6351 81.5208 40.0708 82.0852 40.0708 82.7813V101.684C40.0708 102.379 40.6351 102.944 41.3309 102.944V109.244C40.6351 109.244 40.0708 109.809 40.0708 110.504V129.407C40.0708 130.103 40.6351 130.667 41.3309 130.667V299.445C41.3309 311.736 51.3827 321.793 63.6685 321.793H168.057C179.881 321.793 189.556 312.114 189.556 300.286V123.526H189.976C190.672 123.526 191.236 122.962 191.236 122.266V89.9223C191.236 89.2263 190.672 88.6618 189.976 88.6618H189.556Z" fill="#1D1D25"/>
</g>
<path fill-rule="evenodd" clip-rule="evenodd" d="M124.798 29.434H108.422C107.726 29.434 107.162 29.8661 107.162 30.4844C107.162 31.1028 107.726 31.5342 108.422 31.5342H124.798C125.494 31.5342 126.058 31.1028 126.058 30.4844C126.058 29.8661 125.494 29.434 124.798 29.434Z" fill="black"/>
<path fill-rule="evenodd" clip-rule="evenodd" d="M131.569 27.9584C130.555 27.9584 129.732 28.7816 129.732 29.7962C129.732 30.8107 130.555 31.6339 131.569 31.6339C132.583 31.6339 133.406 30.8107 133.406 29.7962C133.406 28.7816 132.583 27.9584 131.569 27.9584Z" fill="black"/>
<g clip-path="url(#clip0)">
<rect x="220.761" y="67.1566" width="141.331" height="293.053" rx="22" fill="url(#paint1_linear)"/>
<rect x="225.611" y="71.3134" width="131.17" height="287.04" rx="22" fill="white"/>
<path d="M225.611 79.3133C225.611 74.8951 229.192 71.3134 233.611 71.3134H348.781C353.199 71.3134 356.781 74.8951 356.781 79.3134V122.074H225.611V79.3133Z" fill="url(#paint2_linear)"/>
<g filter="url(#filter1_d)">
<rect x="233.469" y="103.341" width="115.454" height="40.4878" rx="4" fill="white"/>
</g>
<g filter="url(#filter2_d)">
<rect x="233.469" y="153.498" width="115.454" height="40.4878" rx="4" fill="white"/>
</g>
<g filter="url(#filter3_d)">
<rect x="233.469" y="203.654" width="115.454" height="40.4878" rx="4" fill="white"/>
</g>
<g filter="url(#filter4_d)">
<rect x="233.469" y="253.811" width="115.454" height="40.4878" rx="4" fill="white"/>
</g>
<g filter="url(#filter5_d)">
<rect x="233.469" y="303.967" width="115.454" height="40.4878" rx="4" fill="white"/>
</g>
<path fill-rule="evenodd" clip-rule="evenodd" d="M268.797 224.281V197.722H273.852V224.281H268.797ZM246.734 224.281V199.004H256.05C257.783 199.004 259.282 199.271 260.546 199.805C261.81 200.339 262.785 201.099 263.471 202.084C264.157 203.069 264.5 204.226 264.5 205.555C264.5 206.765 264.235 207.827 263.705 208.741C263.176 209.655 262.429 210.373 261.467 210.895C262.766 211.393 263.778 212.183 264.5 213.263C265.222 214.343 265.583 215.618 265.583 217.09C265.583 218.561 265.198 219.831 264.428 220.899C263.657 221.967 262.574 222.798 261.178 223.391C259.781 223.985 258.132 224.281 256.231 224.281H246.734ZM251.933 203.383V209.186H255.472C256.652 209.186 257.561 208.943 258.199 208.456C258.837 207.97 259.155 207.252 259.155 206.302C259.155 205.353 258.837 204.629 258.199 204.131C257.561 203.632 256.652 203.383 255.472 203.383H251.933ZM255.978 219.902H251.933V213.28H255.978C257.326 213.28 258.367 213.565 259.101 214.135C259.836 214.704 260.203 215.523 260.203 216.591C260.203 217.659 259.836 218.478 259.101 219.048C258.367 219.618 257.326 219.902 255.978 219.902ZM283.132 224.068C284.336 224.566 285.648 224.815 287.068 224.815C288.513 224.815 289.843 224.566 291.059 224.068C292.274 223.569 293.334 222.869 294.236 221.967C295.139 221.065 295.843 220.009 296.349 218.799C296.854 217.588 297.107 216.271 297.107 214.847C297.107 213.423 296.86 212.111 296.367 210.913C295.873 209.714 295.181 208.67 294.29 207.78C293.4 206.89 292.353 206.196 291.149 205.697C289.945 205.199 288.633 204.95 287.213 204.95C285.769 204.95 284.438 205.199 283.223 205.697C282.007 206.196 280.948 206.896 280.045 207.798C279.142 208.7 278.438 209.75 277.933 210.948C277.427 212.147 277.174 213.458 277.174 214.882C277.174 216.307 277.421 217.624 277.915 218.834C278.408 220.045 279.1 221.095 279.991 221.985C280.882 222.875 281.929 223.569 283.132 224.068ZM287.141 220.33C288.055 220.33 288.874 220.092 289.596 219.618C290.318 219.143 290.89 218.496 291.311 217.677C291.733 216.858 291.943 215.927 291.943 214.882C291.943 213.838 291.733 212.907 291.311 212.088C290.89 211.269 290.318 210.622 289.596 210.147C288.874 209.673 288.055 209.435 287.141 209.435C286.226 209.435 285.407 209.673 284.685 210.147C283.963 210.622 283.391 211.269 282.97 212.088C282.549 212.907 282.338 213.838 282.338 214.882C282.338 215.927 282.549 216.858 282.97 217.677C283.391 218.496 283.963 219.143 284.685 219.618C285.407 220.092 286.226 220.33 287.141 220.33ZM304.889 223.035C305.936 223.51 307.061 223.747 308.265 223.747C309.469 223.747 310.57 223.504 311.569 223.018C312.568 222.531 313.393 221.861 314.043 221.006V222.537C314.043 223.534 313.85 224.406 313.465 225.154C313.08 225.901 312.544 226.483 311.858 226.898C311.172 227.314 310.359 227.521 309.421 227.521C308.554 227.521 307.778 227.325 307.091 226.934C306.405 226.542 305.846 226.002 305.412 225.314L300.574 226.489C301.055 227.533 301.717 228.447 302.56 229.23C303.402 230.013 304.389 230.625 305.521 231.064C306.652 231.503 307.928 231.722 309.348 231.722C310.793 231.722 312.111 231.491 313.302 231.028C314.494 230.565 315.523 229.907 316.39 229.052C317.256 228.198 317.924 227.177 318.394 225.99C318.863 224.804 319.098 223.486 319.098 222.039V205.484H314.44L314.332 207.798C313.682 206.872 312.863 206.166 311.876 205.679C310.889 205.193 309.782 204.95 308.554 204.95C307.302 204.95 306.141 205.193 305.069 205.679C303.998 206.166 303.059 206.836 302.253 207.691C301.446 208.545 300.82 209.548 300.375 210.699C299.93 211.85 299.707 213.102 299.707 214.455C299.707 215.761 299.924 216.977 300.357 218.104C300.79 219.232 301.392 220.217 302.162 221.059C302.933 221.902 303.842 222.561 304.889 223.035ZM309.493 219.333C310.383 219.333 311.172 219.113 311.858 218.674C312.544 218.235 313.092 217.642 313.501 216.894C313.91 216.146 314.115 215.298 314.115 214.348C314.115 213.399 313.91 212.551 313.501 211.803C313.092 211.055 312.544 210.462 311.858 210.023C311.172 209.584 310.383 209.364 309.493 209.364C308.602 209.364 307.814 209.584 307.128 210.023C306.441 210.462 305.894 211.055 305.485 211.803C305.075 212.551 304.871 213.399 304.871 214.348C304.871 215.298 305.075 216.146 305.485 216.894C305.894 217.642 306.441 218.235 307.128 218.674C307.814 219.113 308.602 219.333 309.493 219.333ZM327.801 205.484H323.142V224.281H328.198V215.061C328.198 213.518 328.571 212.325 329.317 211.483C330.063 210.64 331.135 210.219 332.531 210.219C332.82 210.219 333.103 210.236 333.38 210.272C333.656 210.308 333.927 210.373 334.192 210.468L334.734 205.555C334.469 205.46 334.168 205.383 333.831 205.323C333.494 205.264 333.157 205.234 332.82 205.234C331.712 205.234 330.75 205.501 329.931 206.035C329.113 206.569 328.463 207.335 327.981 208.332L327.801 205.484Z" fill="white"/>
<g filter="url(#filter6_d)">
<path fill-rule="evenodd" clip-rule="evenodd" d="M356.855 342.123C356.855 349.458 351.441 355.777 344.109 355.777H239.554C232.222 355.777 225.846 349.458 225.846 342.123V84.5176C225.846 77.1829 232.222 71.8206 239.554 71.8206H251.641C254.197 71.8206 255.141 71.5283 255.295 74.7687C255.376 76.4517 255.994 77.7601 256.982 78.8428C257.97 79.9052 259.331 80.7785 260.894 81.2682C261.955 81.6002 263.136 81.9015 264.262 81.9015H266.545H317.23H319.513C320.639 81.9015 321.82 81.5314 322.881 81.1994C324.445 80.7097 325.804 79.8925 326.793 78.8495C327.782 77.7863 328.4 76.5332 328.48 74.8502C328.633 71.6105 329.579 71.8206 332.134 71.8206H344.109C351.441 71.8206 356.855 77.1829 356.855 84.5176V342.123ZM283.7 73.0805H300.075C300.771 73.0805 301.335 73.5119 301.335 74.1302C301.335 74.7493 300.771 75.1807 300.075 75.1807H283.7C283.003 75.1807 282.44 74.7493 282.44 74.1302C282.44 73.5119 283.003 73.0805 283.7 73.0805ZM308.684 73.4423C308.684 74.4569 307.861 75.2801 306.847 75.2801C305.832 75.2801 305.01 74.4569 305.01 73.4423C305.01 72.4277 305.832 71.6046 306.847 71.6046C307.861 71.6046 308.684 72.4277 308.684 73.4423ZM364.834 132.308V85.3453C364.834 73.4677 355.209 63.8392 343.335 63.8392H238.877C226.63 63.8392 216.609 73.864 216.609 86.1161V103.325C215.913 103.325 215.348 103.888 215.348 104.584V113.405C215.348 114.101 215.913 114.666 216.609 114.666V125.167C215.913 125.167 215.348 125.731 215.348 126.428V145.33C215.348 146.026 215.913 146.59 216.609 146.59V152.891C215.913 152.891 215.348 153.455 215.348 154.15V173.053C215.348 173.749 215.913 174.314 216.609 174.314V343.092C216.609 355.382 226.66 365.439 238.946 365.439H343.335C355.159 365.439 364.834 355.76 364.834 343.932V167.173H365.253C365.95 167.173 366.513 166.608 366.513 165.912V133.569C366.513 132.872 365.95 132.308 365.253 132.308H364.834Z" fill="#1D1D25"/>
</g>
<path fill-rule="evenodd" clip-rule="evenodd" d="M300.075 73.0802H283.7C283.003 73.0802 282.44 73.5124 282.44 74.1307C282.44 74.749 283.003 75.1804 283.7 75.1804H300.075C300.771 75.1804 301.335 74.749 301.335 74.1307C301.335 73.5124 300.771 73.0802 300.075 73.0802Z" fill="black"/>
<path fill-rule="evenodd" clip-rule="evenodd" d="M306.847 71.6046C305.832 71.6046 305.01 72.4278 305.01 73.4424C305.01 74.457 305.832 75.2802 306.847 75.2802C307.861 75.2802 308.684 74.457 308.684 73.4424C308.684 72.4278 307.861 71.6046 306.847 71.6046Z" fill="black"/>
</g>
<defs>
<filter id="filter0_d" x="0.0708008" y="0.192993" width="231.165" height="381.6" filterUnits="userSpaceOnUse" color-interpolation-filters="sRGB">
<feFlood flood-opacity="0" result="BackgroundImageFix"/>
<feColorMatrix in="SourceAlpha" type="matrix" values="0 0 0 0 0 0 0 0 0 0 0 0 0 0 0 0 0 0 127 0"/>
<feOffset dy="20"/>
<feGaussianBlur stdDeviation="20"/>
<feColorMatrix type="matrix" values="0 0 0 0 0.421822 0 0 0 0 0.554338 0 0 0 0 0.89371 0 0 0 0.243444 0"/>
<feBlend mode="normal" in2="BackgroundImageFix" result="effect1_dropShadow"/>
<feBlend mode="normal" in="SourceGraphic" in2="effect1_dropShadow" result="shape"/>
</filter>
<filter id="filter1_d" x="213.469" y="93.3411" width="155.454" height="80.4878" filterUnits="userSpaceOnUse" color-interpolation-filters="sRGB">
<feFlood flood-opacity="0" result="BackgroundImageFix"/>
<feColorMatrix in="SourceAlpha" type="matrix" values="0 0 0 0 0 0 0 0 0 0 0 0 0 0 0 0 0 0 127 0"/>
<feOffset dy="10"/>
<feGaussianBlur stdDeviation="10"/>
<feColorMatrix type="matrix" values="0 0 0 0 0.421822 0 0 0 0 0.554338 0 0 0 0 0.89371 0 0 0 0.243444 0"/>
<feBlend mode="normal" in2="BackgroundImageFix" result="effect1_dropShadow"/>
<feBlend mode="normal" in="SourceGraphic" in2="effect1_dropShadow" result="shape"/>
</filter>
<filter id="filter2_d" x="213.469" y="143.498" width="155.454" height="80.4878" filterUnits="userSpaceOnUse" color-interpolation-filters="sRGB">
<feFlood flood-opacity="0" result="BackgroundImageFix"/>
<feColorMatrix in="SourceAlpha" type="matrix" values="0 0 0 0 0 0 0 0 0 0 0 0 0 0 0 0 0 0 127 0"/>
<feOffset dy="10"/>
<feGaussianBlur stdDeviation="10"/>
<feColorMatrix type="matrix" values="0 0 0 0 0.421822 0 0 0 0 0.554338 0 0 0 0 0.89371 0 0 0 0.243444 0"/>
<feBlend mode="normal" in2="BackgroundImageFix" result="effect1_dropShadow"/>
<feBlend mode="normal" in="SourceGraphic" in2="effect1_dropShadow" result="shape"/>
</filter>
<filter id="filter3_d" x="213.469" y="193.654" width="155.454" height="80.4878" filterUnits="userSpaceOnUse" color-interpolation-filters="sRGB">
<feFlood flood-opacity="0" result="BackgroundImageFix"/>
<feColorMatrix in="SourceAlpha" type="matrix" values="0 0 0 0 0 0 0 0 0 0 0 0 0 0 0 0 0 0 127 0"/>
<feOffset dy="10"/>
<feGaussianBlur stdDeviation="10"/>
<feColorMatrix type="matrix" values="0 0 0 0 0.421822 0 0 0 0 0.554338 0 0 0 0 0.89371 0 0 0 0.243444 0"/>
<feBlend mode="normal" in2="BackgroundImageFix" result="effect1_dropShadow"/>
<feBlend mode="normal" in="SourceGraphic" in2="effect1_dropShadow" result="shape"/>
</filter>
<filter id="filter4_d" x="213.469" y="243.811" width="155.454" height="80.4878" filterUnits="userSpaceOnUse" color-interpolation-filters="sRGB">
<feFlood flood-opacity="0" result="BackgroundImageFix"/>
<feColorMatrix in="SourceAlpha" type="matrix" values="0 0 0 0 0 0 0 0 0 0 0 0 0 0 0 0 0 0 127 0"/>
<feOffset dy="10"/>
<feGaussianBlur stdDeviation="10"/>
<feColorMatrix type="matrix" values="0 0 0 0 0.421822 0 0 0 0 0.554338 0 0 0 0 0.89371 0 0 0 0.243444 0"/>
<feBlend mode="normal" in2="BackgroundImageFix" result="effect1_dropShadow"/>
<feBlend mode="normal" in="SourceGraphic" in2="effect1_dropShadow" result="shape"/>
</filter>
<filter id="filter5_d" x="213.469" y="293.967" width="155.454" height="80.4878" filterUnits="userSpaceOnUse" color-interpolation-filters="sRGB">
<feFlood flood-opacity="0" result="BackgroundImageFix"/>
<feColorMatrix in="SourceAlpha" type="matrix" values="0 0 0 0 0 0 0 0 0 0 0 0 0 0 0 0 0 0 127 0"/>
<feOffset dy="10"/>
<feGaussianBlur stdDeviation="10"/>
<feColorMatrix type="matrix" values="0 0 0 0 0.421822 0 0 0 0 0.554338 0 0 0 0 0.89371 0 0 0 0.243444 0"/>
<feBlend mode="normal" in2="BackgroundImageFix" result="effect1_dropShadow"/>
<feBlend mode="normal" in="SourceGraphic" in2="effect1_dropShadow" result="shape"/>
</filter>
<filter id="filter6_d" x="175.348" y="43.8392" width="231.165" height="381.6" filterUnits="userSpaceOnUse" color-interpolation-filters="sRGB">
<feFlood flood-opacity="0" result="BackgroundImageFix"/>
<feColorMatrix in="SourceAlpha" type="matrix" values="0 0 0 0 0 0 0 0 0 0 0 0 0 0 0 0 0 0 127 0"/>
<feOffset dy="20"/>
<feGaussianBlur stdDeviation="20"/>
<feColorMatrix type="matrix" values="0 0 0 0 0.421822 0 0 0 0 0.554338 0 0 0 0 0.89371 0 0 0 0.243444 0"/>
<feBlend mode="normal" in2="BackgroundImageFix" result="effect1_dropShadow"/>
<feBlend mode="normal" in="SourceGraphic" in2="effect1_dropShadow" result="shape"/>
</filter>
<linearGradient id="paint0_linear" x1="-25.1816" y1="170.037" x2="204.142" y2="280.633" gradientUnits="userSpaceOnUse">
<stop stop-color="#FF8F71"/>
<stop offset="1" stop-color="#FF3E55"/>
</linearGradient>
<linearGradient id="paint1_linear" x1="150.096" y1="213.683" x2="379.42" y2="324.279" gradientUnits="userSpaceOnUse">
<stop stop-color="#FF8F71"/>
<stop offset="1" stop-color="#FF3E55"/>
</linearGradient>
<linearGradient id="paint2_linear" x1="160.025" y1="96.6938" x2="194.195" y2="184.992" gradientUnits="userSpaceOnUse">
<stop stop-color="#FF8F71"/>
<stop offset="1" stop-color="#FF3E55"/>
</linearGradient>
<clipPath id="clip0">
<rect width="152" height="303" fill="white" transform="translate(215.219 63.6926)"/>
</clipPath>
</defs>
</svg>
